<svg width="64" height="64" viewBox="0 0 64 64" fill="none" xmlns="http://www.w3.org/2000/svg">
<path d="M0 10C0 4.47715 4.47715 0 10 0H54C59.5228 0 64 4.47715 64 10V54C64 59.5228 59.5228 64 54 64H10C4.47715 64 0 59.5228 0 54V10Z" fill="#1E6DFF"/>
<path d="M56 30.3637V35.6333L35.6333 32.5L34.6363 47.4545L43.4667 52.8667V56L32.5 53.8637L21.5333 56V52.8667L30.3637 47.4545L29.3667 32.5L9 35.6333V30.3637L29.3667 23.1V13.7C29.3667 13.7 29.3667 9 32.5 9C35.6333 9 35.6333 13.7 35.6333 13.7V22.5304L56 30.3637Z" fill="white"/>
</svg>
