<svg width="46" height="47" viewBox="0 0 46 47" fill="none" xmlns="http://www.w3.org/2000/svg">
<path d="M0 0H46V47H0V0Z" fill="#608F72"/>
<path d="M11.8267 10.8182V37H7.87642V10.8182H11.8267Z" fill="white"/>
<path d="M39.3253 19.3324H35.3366C35.1832 18.4801 34.8977 17.7301 34.4801 17.0824C34.0625 16.4347 33.5511 15.8849 32.946 15.4332C32.3409 14.9815 31.6634 14.6406 30.9134 14.4105C30.1719 14.1804 29.3835 14.0653 28.5483 14.0653C27.0398 14.0653 25.6889 14.4446 24.4957 15.2031C23.3111 15.9616 22.3736 17.0739 21.6832 18.5398C21.0014 20.0057 20.6605 21.7955 20.6605 23.9091C20.6605 26.0398 21.0014 27.8381 21.6832 29.304C22.3736 30.7699 23.3153 31.8778 24.5085 32.6278C25.7017 33.3778 27.044 33.7528 28.5355 33.7528C29.3622 33.7528 30.1463 33.642 30.8878 33.4205C31.6378 33.1903 32.3153 32.8537 32.9205 32.4105C33.5256 31.9673 34.0369 31.4261 34.4545 30.7869C34.8807 30.1392 35.1747 29.3977 35.3366 28.5625L39.3253 28.5753C39.1122 29.8622 38.6989 31.0469 38.0852 32.1293C37.4801 33.2031 36.7003 34.1321 35.7457 34.9162C34.7997 35.6918 33.7173 36.2926 32.4986 36.7188C31.2798 37.1449 29.9503 37.358 28.5099 37.358C26.2429 37.358 24.223 36.821 22.4503 35.7472C20.6776 34.6648 19.2798 33.1179 18.2571 31.1065C17.2429 29.0952 16.7358 26.696 16.7358 23.9091C16.7358 21.1136 17.2472 18.7145 18.2699 16.7116C19.2926 14.7003 20.6903 13.1577 22.4631 12.0838C24.2358 11.0014 26.2514 10.4602 28.5099 10.4602C29.8991 10.4602 31.1946 10.6605 32.3963 11.0611C33.6065 11.4531 34.6932 12.0327 35.6562 12.7997C36.6193 13.5582 37.4162 14.4872 38.0469 15.5866C38.6776 16.6776 39.1037 17.9261 39.3253 19.3324Z" fill="white"/>
</svg>
