<svg width="46" height="47" viewBox="0 0 46 47" fill="none" xmlns="http://www.w3.org/2000/svg">
<path d="M0 0H46V47H0V0Z" fill="#608F72"/>
<path d="M38 17.5247H35.7516C35.6186 16.5076 35.3859 15.6141 35.0535 14.8441C34.7271 14.0741 34.3282 13.4278 33.8567 12.9049C33.3913 12.3726 32.8746 11.9734 32.3064 11.7072C31.7383 11.4411 31.146 11.308 30.5295 11.308C29.4053 11.308 28.3868 11.7548 27.4742 12.6483C26.5675 13.5418 25.8453 14.8584 25.3073 16.5979C24.7755 18.3375 24.5095 20.4715 24.5095 23C24.5095 25.5285 24.7755 27.6625 25.3073 29.4021C25.8453 31.1416 26.5675 32.4582 27.4742 33.3517C28.3868 34.2452 29.4053 34.692 30.5295 34.692C31.146 34.692 31.7383 34.5589 32.3064 34.2928C32.8746 34.0266 33.3913 33.6321 33.8567 33.1093C34.3282 32.577 34.7271 31.9259 35.0535 31.1559C35.3859 30.3764 35.6186 29.4829 35.7516 28.4753H38C37.8308 29.9677 37.5225 31.3032 37.0752 32.4819C36.628 33.6606 36.0719 34.6635 35.4071 35.4905C34.7422 36.308 33.9958 36.9306 33.1677 37.3584C32.3457 37.7861 31.4663 38 30.5295 38C28.9459 38 27.5376 37.3916 26.3046 36.1749C25.0716 34.9582 24.1015 33.2281 23.3944 30.9848C22.6872 28.7414 22.3336 26.0798 22.3336 23C22.3336 19.9202 22.6872 17.2586 23.3944 15.0152C24.1015 12.7719 25.0716 11.0418 26.3046 9.8251C27.5376 8.60837 28.9459 8 30.5295 8C31.4663 8 32.3457 8.21388 33.1677 8.64163C33.9958 9.06939 34.7422 9.69677 35.4071 10.5238C36.0719 11.3413 36.628 12.3394 37.0752 13.5181C37.5225 14.6873 37.8308 16.0228 38 17.5247Z" fill="white"/>
<path d="M16.3046 8.3992H18.553V29.2737C18.553 31.1368 18.3354 32.7195 17.9003 34.0218C17.4651 35.3241 16.8516 36.3127 16.0598 36.9876C15.2681 37.6625 14.3342 38 13.2584 38C12.243 38 11.3394 37.71 10.5476 37.1302C9.75582 36.5408 9.13327 35.7043 8.67996 34.6207C8.22665 33.537 8 32.249 8 30.7566H10.2121C10.2121 31.5836 10.3421 32.306 10.602 32.9239C10.8679 33.5323 11.2306 34.0076 11.6899 34.3498C12.1493 34.692 12.6721 34.8631 13.2584 34.8631C13.9051 34.8631 14.4551 34.6492 14.9084 34.2214C15.3617 33.7937 15.7063 33.1663 15.942 32.3393C16.1837 31.5028 16.3046 30.4809 16.3046 29.2737V8.3992Z" fill="white"/>
</svg>
