<svg width="50" height="48" viewBox="0 0 50 48" fill="none" xmlns="http://www.w3.org/2000/svg">
<path d="M0 0H50V48H0V0Z" fill="#608F72"/>
<path d="M11.6174 12.8182H14.0183V31.3807C14.0183 33.0597 13.8157 34.4957 13.4103 35.6889C13.0102 36.8821 12.4463 37.794 11.7188 38.4247C10.9912 39.0469 10.1389 39.358 9.16193 39.358C8.26289 39.358 7.45479 39.0895 6.73763 38.5526C6.02567 38.0156 5.46182 37.2358 5.04608 36.2131C4.63553 35.1818 4.43026 33.929 4.43026 32.4545H6.82338C6.82338 33.179 6.92472 33.8054 7.12739 34.3338C7.33526 34.8622 7.61849 35.2756 7.97706 35.5739C8.34084 35.8636 8.75658 36.0085 9.22429 36.0085C9.73358 36.0085 10.1649 35.8338 10.5183 35.4844C10.8769 35.1264 11.1497 34.6023 11.3368 33.9119C11.5239 33.2216 11.6174 32.3778 11.6174 31.3807V12.8182Z" fill="white"/>
<path d="M30.7838 21.3324H28.3517C28.2582 20.4801 28.0841 19.7301 27.8294 19.0824C27.5748 18.4347 27.263 17.8849 26.894 17.4332C26.525 16.9815 26.1119 16.6406 25.6546 16.4105C25.2025 16.1804 24.7218 16.0653 24.2125 16.0653C23.2926 16.0653 22.4689 16.4446 21.7414 17.2031C21.019 17.9616 20.4474 19.0739 20.0265 20.5398C19.6107 22.0057 19.4028 23.7955 19.4028 25.9091C19.4028 28.0398 19.6107 29.8381 20.0265 31.304C20.4474 32.7699 21.0216 33.8778 21.7492 34.6278C22.4767 35.3778 23.2952 35.7528 24.2047 35.7528C24.7088 35.7528 25.1869 35.642 25.639 35.4205C26.0963 35.1903 26.5095 34.8537 26.8784 34.4105C27.2474 33.9673 27.5592 33.4261 27.8138 32.7869C28.0737 32.1392 28.253 31.3977 28.3517 30.5625L30.7838 30.5753C30.6539 31.8622 30.4018 33.0469 30.0277 34.1293C29.6587 35.2031 29.1832 36.1321 28.6012 36.9162C28.0243 37.6918 27.3643 38.2926 26.6212 38.7188C25.878 39.1449 25.0673 39.358 24.1891 39.358C22.8067 39.358 21.5751 38.821 20.4942 37.7472C19.4132 36.6648 18.561 35.1179 17.9374 33.1065C17.3189 31.0952 17.0097 28.696 17.0097 25.9091C17.0097 23.1136 17.3215 20.7145 17.9451 18.7116C18.5688 16.7003 19.421 15.1577 20.502 14.0838C21.5829 13.0014 22.8119 12.4602 24.1891 12.4602C25.0362 12.4602 25.8261 12.6605 26.5588 13.0611C27.2968 13.4531 27.9594 14.0327 28.5466 14.7997C29.1338 15.5582 29.6197 16.4872 30.0043 17.5866C30.3889 18.6776 30.6487 19.9261 30.7838 21.3324Z" fill="white"/>
<path d="M32.8788 16.2188V12.8182H45.2341V16.2188H40.253V39H37.8521V16.2188H32.8788Z" fill="white"/>
</svg>
