<svg width="111" height="128" viewBox="0 0 111 128" fill="none" xmlns="http://www.w3.org/2000/svg">
<path d="M15 38C15 34.6863 17.6863 32 21 32H73C76.3137 32 79 34.6863 79 38V90C79 93.3137 76.3137 96 73 96H21C17.6863 96 15 93.3137 15 90V38Z" fill="#C3C3C3"/>
<path d="M73 94V96H21V94H73ZM77 90V38C77 35.7909 75.2091 34 73 34H21C18.7909 34 17 35.7909 17 38V90C17 92.2091 18.7909 94 21 94V96C17.6863 96 15 93.3137 15 90V38C15 34.6863 17.6863 32 21 32H73C76.3137 32 79 34.6863 79 38V90C79 93.3137 76.3137 96 73 96V94C75.2091 94 77 92.2091 77 90Z" fill="white"/>
<path d="M59.8329 76.2208C62.9141 72.9829 64.6383 68.68 64.6384 64.1993C64.6384 59.7187 62.9147 55.4151 59.8336 52.1771L59.5305 51.8671C56.2599 48.5966 51.8241 46.7599 47.1989 46.7599C42.5737 46.7599 38.1379 48.5966 34.8674 51.8671L34.5642 52.1771C31.4832 55.4151 29.7595 59.7187 29.7595 64.1993C29.7596 68.8244 31.597 73.2597 34.8674 76.5302L35.1774 76.8334C38.4154 79.9144 42.7183 81.6388 47.1989 81.6388C51.8242 81.6388 56.2599 79.8008 59.5305 76.5302L59.8329 76.2208ZM62.6669 80.4552C58.5006 84.4197 52.9642 86.6382 47.1989 86.6382C41.4336 86.6382 35.8973 84.4197 31.731 80.4552L31.3318 80.0657C27.1237 75.8575 24.7593 70.1499 24.7593 64.1987C24.7594 58.4334 26.9779 52.8969 30.9424 48.7307L31.3318 48.3316C35.5401 44.1234 41.2476 41.7591 47.1989 41.7591C53.1502 41.7591 58.8578 44.1234 63.066 48.3316L63.4555 48.7307C67.4199 52.8969 69.6384 58.4334 69.6385 64.1987C69.6385 70.1499 67.2742 75.8575 63.066 80.0657L62.6669 80.4552Z" fill="black"/>
<path d="M63.0659 76.5303L59.5304 80.0659L31.3317 51.8672L34.8673 48.3317L63.0659 76.5303Z" fill="black"/>
<path d="M63.0662 51.8672L34.8676 80.0659L31.332 76.5303L59.5307 48.3317L63.0662 51.8672Z" fill="black"/>
</svg>
