<svg width="53" height="53" viewBox="0 0 53 53" fill="none" xmlns="http://www.w3.org/2000/svg">
<path d="M0 6C0 2.68629 2.68629 0 6 0H47C50.3137 0 53 2.68629 53 6V47C53 50.3137 50.3137 53 47 53H6C2.68629 53 0 50.3137 0 47V6Z" fill="#666666"/>
<path d="M12.5619 13.5619C16.1516 9.97889 20.9246 8 26 8C31.0754 8 35.8484 9.97889 39.4381 13.5619C43.0211 17.1516 45 21.9246 45 27C45 32.0754 43.0211 36.8484 39.4381 40.4381C35.8484 44.0211 31.0754 46 26 46C20.9246 46 16.1516 44.0211 12.5619 40.4381C8.97232 36.855 7 32.0754 7 27C7 21.9246 8.97889 17.1516 12.5619 13.5619ZM22.8377 27L14.2647 18.427C12.4502 20.899 11.4706 23.8772 11.4706 27C11.4706 30.1228 12.4502 33.101 14.2647 35.573L22.8377 27ZM17.427 15.2647L26 23.8377L34.573 15.2647C32.101 13.4502 29.1228 12.4706 26 12.4706C22.8772 12.4706 19.899 13.4502 17.427 15.2647ZM37.7353 18.427L29.1623 27L37.7353 35.573C39.5498 33.101 40.5294 30.1228 40.5294 27C40.5294 23.8772 39.5498 20.899 37.7353 18.427ZM34.573 38.7353L26 30.1623L17.427 38.7353C19.899 40.5498 22.8772 41.5294 26 41.5294C29.1228 41.5294 32.101 40.5498 34.573 38.7353Z" fill="white"/>
</svg>
