<svg width="53" height="53" viewBox="0 0 53 53" fill="none" xmlns="http://www.w3.org/2000/svg">
<path d="M0 6C0 2.68629 2.68629 0 6 0H47C50.3137 0 53 2.68629 53 6V47C53 50.3137 50.3137 53 47 53H6C2.68629 53 0 50.3137 0 47V6Z" fill="#AAAAAA"/>
<path d="M11.8547 12.8547C15.6332 9.08305 20.6574 7 26 7C31.3426 7 36.3668 9.08305 40.1453 12.8547C43.917 16.6332 46 21.6574 46 27C46 32.3426 43.917 37.3668 40.1453 41.1453C36.3668 44.917 31.3426 47 26 47C20.6574 47 15.6332 44.917 11.8547 41.1453C8.07612 37.3737 6 32.3426 6 27C6 21.6574 8.08305 16.6332 11.8547 12.8547ZM22.6713 27L13.6471 17.9758C11.737 20.5779 10.7059 23.7128 10.7059 27C10.7059 30.2872 11.737 33.4221 13.6471 36.0242L22.6713 27ZM16.9758 14.6471L26 23.6713L35.0242 14.6471C32.4221 12.737 29.2872 11.7059 26 11.7059C22.7128 11.7059 19.5779 12.737 16.9758 14.6471ZM38.3529 17.9758L29.3287 27L38.3529 36.0242C40.263 33.4221 41.2941 30.2872 41.2941 27C41.2941 23.7128 40.263 20.5779 38.3529 17.9758ZM35.0242 39.3529L26 30.3287L16.9758 39.3529C19.5779 41.263 22.7128 42.2941 26 42.2941C29.2872 42.2941 32.4221 41.263 35.0242 39.3529Z" fill="white"/>
</svg>
