<svg width="64" height="64" viewBox="0 0 64 64" fill="none" xmlns="http://www.w3.org/2000/svg">
<rect width="64" height="64" rx="6" fill="#DADADA"/>
<path d="M28.5911 7L30.5457 10.9231H50.0909L52.0455 7H28.5911ZM30.5457 12.8846V17.7885C30.5457 17.7885 30.5457 28.5769 40.3183 28.5769C50.0909 28.5769 50.0909 17.7885 50.0909 17.7885V12.8846H30.5457ZM14.8485 18.7155C12.6926 18.7492 10.9707 20.5287 11.0004 22.6923V38.3846C11 40.8946 13.3153 42.7596 15.7569 42.2159L26.6366 39.7867V58L49.6176 30.8143C49.0711 30.6538 48.5066 30.5385 47.9073 30.5385H32.5002L18.8185 33.4961V22.6923C18.8486 20.4805 17.052 18.681 14.8485 18.7155ZM53.0149 33.3274L32.1566 58H54V36.653C54 35.4231 53.6329 34.2842 53.0149 33.3274Z" fill="black"/>
</svg>
