<svg width="64" height="64" viewBox="0 0 64 64" fill="none" xmlns="http://www.w3.org/2000/svg">
<rect width="64" height="64" rx="6" fill="#44AE23"/>
<path d="M53.3816 48.2548V42.7778H46.7121H40.0442V48.2548L37.4238 49.4465V51.3513H46.7121H56.0013V49.4465L53.3816 48.2548ZM50.9992 48.2548H46.7121H42.4258V46.1113H46.7121H50.9992V48.2548Z" fill="white"/>
<path d="M40.4225 52.3041H38.2789V55.8764H40.4225V52.3041Z" fill="white"/>
<path d="M55.1461 52.3041H53.0026V55.8764H55.1461V52.3041Z" fill="white"/>
<path d="M51.5883 52.3041H49.4438V54.2675H51.5883V52.3041Z" fill="white"/>
<path d="M43.9803 52.3041H41.8367V54.2675H43.9803V52.3041Z" fill="white"/>
<path d="M41.2314 38.6083C44.7351 37.2808 47.2306 33.904 47.2306 29.9353C47.2306 27.419 46.2253 25.1405 44.5993 23.4693C44.6582 23.0296 44.6998 22.5861 44.6998 22.131C44.6998 17.0684 40.9003 12.8989 35.9988 12.2998C33.5348 9.66045 30.0348 8 26.1386 8C18.6836 8 12.64 14.0434 12.64 21.4985C12.64 21.5383 12.6454 21.5763 12.6454 21.6152C9.84317 23.5109 8 26.7185 8 30.357C8 35.3455 11.4673 39.5149 16.1209 40.6116C17.0647 42.9198 19.3287 44.5486 21.9772 44.5486C22.9643 44.5486 23.8945 44.316 24.727 43.9133V55.8763H31.9766V48.0222L34.8042 43.1921C37.698 42.9814 40.1429 41.1572 41.2314 38.6083ZM28.0469 40.0008C28.1076 40.0877 28.1727 40.1718 28.2379 40.256L27.9167 40.3863C27.9627 40.2587 28.0079 40.1312 28.0469 40.0008ZM30.3154 45.9087V42.1145C30.9868 42.5218 31.7251 42.8294 32.5124 43.0131L30.3154 45.9087Z" fill="white"/>
</svg>
