<svg width="65" height="53" viewBox="0 0 65 53" fill="none" xmlns="http://www.w3.org/2000/svg">
<path d="M54.1879 2.33945C39.9626 -0.779817 25.0374 -0.779817 10.8121 2.33945C8.95018 2.75156 7.20386 3.47514 5.67546 4.46777C4.14706 5.4604 2.86733 6.70212 1.91125 8.12016C0.955182 9.5382 0.342002 11.104 0.107648 12.7259C-0.126706 14.3478 0.0224805 15.9931 0.546464 17.5654C4.49633 29.5519 11.9578 40.4931 22.2344 49.3679C23.5785 50.5188 25.1776 51.4323 26.9396 52.0557C28.7015 52.679 30.5913 53 32.5 53C34.4087 53 36.2985 52.679 38.0604 52.0557C39.8224 51.4323 41.4215 50.5188 42.7656 49.3679C53.0422 40.4931 60.5037 29.5519 64.4535 17.5654C64.9775 15.9931 65.1267 14.3478 64.8923 12.7259C64.658 11.104 64.0448 9.5382 63.0887 8.12016C62.1327 6.70212 60.8529 5.4604 59.3245 4.46777C57.7962 3.47514 56.0498 2.75156 54.1879 2.33945Z" fill="white"/>
<path d="M53.6096 4.18129C39.7636 1.14521 25.2364 1.14521 11.3904 4.18129C9.82428 4.52282 8.3542 5.1265 7.06641 5.95692C5.77863 6.78734 4.69906 7.82778 3.89104 9.01723C3.08301 10.2067 2.56279 11.5212 2.36088 12.8836C2.15898 14.2461 2.27946 15.629 2.71526 16.9514C6.53949 28.6581 13.8032 39.3477 23.8248 48.0172C24.9557 48.9974 26.3054 49.776 27.795 50.3076C29.2847 50.8392 30.8842 51.113 32.5 51.113C34.1158 51.113 35.7153 50.8392 37.205 50.3076C38.6946 49.776 40.0443 48.9974 41.1752 48.0172C51.1968 39.3477 58.4605 28.6581 62.2847 16.9514C62.7205 15.629 62.841 14.2461 62.6391 12.8836C62.4372 11.5212 61.917 10.2067 61.109 9.01723C60.3009 7.82778 59.2214 6.78734 57.9336 5.95692C56.6458 5.1265 55.1757 4.52282 53.6096 4.18129Z" fill="#009DFF"/>
<path d="M10.9189 2.82812C25.0737 -0.275671 39.9263 -0.275671 54.0811 2.82812V2.82715C55.774 3.20199 57.3653 3.8418 58.7734 4.70996L59.0518 4.88672C60.4353 5.78528 61.6036 6.8921 62.499 8.14648L62.6738 8.39941C63.5897 9.75785 64.1743 11.2537 64.3975 12.7979C64.6065 14.245 64.4947 15.7121 64.0684 17.125L63.9795 17.4072L63.9785 17.4092C60.1816 28.9314 53.1113 39.4888 43.3877 48.1562L42.4385 48.9893C41.144 50.0972 39.6 50.9802 37.8936 51.584C36.1863 52.188 34.3531 52.5 32.5 52.5C30.6469 52.5 28.8137 52.188 27.1064 51.584C25.3997 50.9801 23.8551 50.0975 22.5605 48.9893H22.5615C12.6672 40.4446 5.40681 29.9797 1.39941 18.5205L1.02148 17.4092L1.02051 17.4072L0.931641 17.125C0.533657 15.8061 0.41007 14.44 0.56543 13.0869L0.602539 12.7979C0.811705 11.3503 1.33857 9.94546 2.1582 8.65625L2.32617 8.39941C3.185 7.1257 4.31941 5.99532 5.67383 5.06934L5.94824 4.88672C7.42349 3.9287 9.1127 3.22696 10.918 2.82715L10.9189 2.82812ZM53.7148 3.69238C40.2337 0.73657 26.111 0.644671 12.5898 3.41602L11.2842 3.69238C9.86508 4.00184 8.51885 4.51999 7.30664 5.22363L6.7959 5.53711C5.53926 6.34744 4.4675 7.35262 3.63965 8.50391L3.47754 8.73633C2.62914 9.9852 2.07963 11.3704 1.86621 12.8105C1.6528 14.2509 1.78035 15.7129 2.24023 17.1084V17.1074C6.0948 28.9064 13.4128 39.6706 23.4971 48.3945V48.3955C24.6774 49.4185 26.0823 50.2271 27.627 50.7783C29.1717 51.3296 30.8282 51.6133 32.5 51.6133C34.1718 51.6133 35.8283 51.3296 37.373 50.7783C38.9177 50.2271 40.3226 49.4185 41.5029 48.3955L41.502 48.3945C51.5865 39.6706 58.9041 28.9066 62.7588 17.1074L62.7598 17.1084C63.2197 15.7129 63.3472 14.2509 63.1338 12.8105C62.9337 11.4602 62.4381 10.1583 61.6777 8.97168L61.5225 8.73633C60.7803 7.64387 59.823 6.67521 58.6973 5.87109L58.2041 5.53711C56.8638 4.67283 55.3376 4.04605 53.7158 3.69238H53.7148ZM11.4971 4.66992C24.842 1.74371 38.8242 1.65219 52.209 4.39551L53.5029 4.66992C54.8247 4.95815 56.0726 5.43939 57.1914 6.08887L57.6631 6.37695C58.7438 7.07387 59.6671 7.92243 60.3955 8.88086L60.6953 9.29785C61.463 10.4279 61.9541 11.6723 62.1445 12.957C62.3111 14.081 62.2451 15.2201 61.9502 16.3242L61.8096 16.7949V16.7959C58.1343 28.0467 51.2534 38.3596 41.7734 46.8252L40.8477 47.6387V47.6396C39.7664 48.5768 38.4715 49.325 37.0371 49.8369C35.6026 50.3488 34.0598 50.6133 32.5 50.6133C30.9402 50.6133 29.3974 50.3488 27.9629 49.8369C26.7076 49.3889 25.5593 48.7596 24.5674 47.9814L24.1523 47.6396V47.6387L23.2266 46.8252C14.0524 38.6327 7.31289 28.7102 3.55664 17.8818L3.19043 16.7959V16.7949L3.0498 16.3242C2.75489 15.2201 2.68892 14.081 2.85547 12.957C3.02203 11.8331 3.41859 10.7401 4.0293 9.72754L4.30469 9.29785C4.97658 8.30888 5.84881 7.42385 6.88379 6.68457L7.33691 6.37695C8.41783 5.67993 9.63601 5.14752 10.9355 4.80469L11.4971 4.66992Z" stroke="white"/>
</svg>
