<svg width="64" height="64" viewBox="0 0 64 64" fill="none" xmlns="http://www.w3.org/2000/svg">
<path d="M0 6C0 2.68629 2.68629 0 6 0H58C61.3137 0 64 2.68629 64 6V58C64 61.3137 61.3137 64 58 64H6C2.68629 64 0 61.3137 0 58V6Z" fill="#CFB383"/>
<path d="M48.1667 18.3975H35.6333V15.2642C35.6333 14.4331 35.3032 13.6362 34.7156 13.0486C34.128 12.4609 33.331 12.1308 32.5 12.1308C31.669 12.1308 30.872 12.4609 30.2844 13.0486C29.6968 13.6362 29.3667 14.4331 29.3667 15.2642V18.3975H16.8333C16.0023 18.3975 15.2053 18.7276 14.6177 19.3152C14.0301 19.9028 13.7 20.6998 13.7 21.5308C13.7 22.3618 14.0301 23.1588 14.6177 23.7464C15.2053 24.334 16.0023 24.6642 16.8333 24.6642H18.9327C20.1817 29.0195 22.2912 33.0802 25.1367 36.6062C26.1804 37.9576 27.2028 39.1906 28.2026 40.3462C25.7477 42.8687 23.0058 45.095 20.0328 46.9795C19.3023 47.3763 18.7593 48.047 18.5234 48.8441C18.2874 49.6413 18.3778 50.4995 18.7746 51.23C19.1714 51.9605 19.8421 52.5034 20.6393 52.7394C21.4364 52.9753 22.2946 52.885 23.0251 52.4882C26.4848 50.3647 29.6675 47.8199 32.5 44.9121C35.3325 47.8199 38.5152 50.3647 41.9749 52.4882C42.7053 52.885 43.5634 52.9755 44.3604 52.7396C44.7551 52.6228 45.1229 52.4295 45.4429 52.1706C45.7628 51.9116 46.0286 51.5922 46.2251 51.2306C46.4216 50.869 46.5449 50.4721 46.5881 50.0628C46.6312 49.6535 46.5933 49.2397 46.4766 48.845C46.3598 48.4504 46.1664 48.0826 45.9075 47.7626C45.6486 47.4427 45.3292 47.1769 44.9675 46.9804C41.9946 45.0959 39.2527 42.8695 36.798 40.3468C37.7978 39.1912 38.8199 37.9586 39.8636 36.6072C42.7091 33.0809 44.8187 29.0198 46.0676 24.6642H48.167C48.998 24.6642 49.795 24.334 50.3826 23.7464C50.9702 23.1588 51.3003 22.3618 51.3003 21.5308C51.3003 20.6998 50.9702 19.9028 50.3826 19.3152C49.795 18.7276 48.9977 18.3975 48.1667 18.3975ZM34.9036 32.7754C34.0845 33.8361 33.2887 34.7848 32.5003 35.7114C31.7117 34.7848 30.9158 33.8361 30.0964 32.7754C28.1534 30.327 26.6043 27.5903 25.5051 24.6642H39.4933C38.3951 27.5904 36.8465 30.3271 34.9036 32.7754Z" fill="white"/>
</svg>
