<svg width="64" height="64" viewBox="0 0 64 64" fill="none" xmlns="http://www.w3.org/2000/svg">
<path d="M0 10C0 4.47715 4.47715 0 10 0H54C59.5228 0 64 4.47715 64 10V54C64 59.5228 59.5228 64 54 64H10C4.47715 64 0 59.5228 0 54V10Z" fill="#F07171"/>
<path d="M36.2 34.7192V49.8095C36.2 50.9209 35.7575 51.9868 34.9698 52.7726C34.1822 53.5585 33.1139 54 32 54C30.8861 54 29.8178 53.5585 29.0302 52.7726C28.2425 51.9868 27.8 50.9209 27.8 49.8095V34.7192C23.0605 33.7472 18.8017 31.1747 15.7415 27.4353C12.6813 23.6958 11.0067 19.0181 11 14.1905C11 13.0791 11.4425 12.0132 12.2302 11.2274C13.0178 10.4415 14.0861 10 15.2 10C16.3139 10 17.3822 10.4415 18.1698 11.2274C18.9575 12.0132 19.4 13.0791 19.4 14.1905C19.4 17.5246 20.7275 20.7222 23.0905 23.0798C25.4534 25.4374 28.6583 26.7619 32 26.7619C35.3417 26.7619 38.5466 25.4374 40.9095 23.0798C43.2725 20.7222 44.6 17.5246 44.6 14.1905C44.6 13.0791 45.0425 12.0132 45.8302 11.2274C46.6178 10.4415 47.6861 10 48.8 10C49.9139 10 50.9822 10.4415 51.7698 11.2274C52.5575 12.0132 53 13.0791 53 14.1905C52.9935 19.0181 51.3189 23.6959 48.2587 27.4354C45.1984 31.1749 40.9396 33.7473 36.2 34.7192Z" fill="white"/>
</svg>
