<svg width="64" height="64" viewBox="0 0 64 64" fill="none" xmlns="http://www.w3.org/2000/svg">
<path d="M0 6C0 2.68629 2.68629 0 6 0H58C61.3137 0 64 2.68629 64 6V58C64 61.3137 61.3137 64 58 64H6C2.68629 64 0 61.3137 0 58V6Z" fill="#FF5757"/>
<path d="M49.5132 14H14.4861C13.5537 14.0083 12.6628 14.389 12.0091 15.0584C11.3554 15.7279 10.9925 16.6312 11.0001 17.57V37.2353C10.9979 37.8947 11.1768 38.5419 11.5169 39.1054C11.857 39.6688 12.3452 40.1269 12.9276 40.4286L29.6575 50.4341C30.3829 50.8062 31.1853 51 31.9993 51C32.8134 51 33.6158 50.8062 34.3412 50.4341L51.0724 40.4286C51.6548 40.1269 52.1431 39.6692 52.4833 39.1054C52.8235 38.542 53.0023 37.8947 52.9999 37.2353V17.57C53.0041 17.105 52.9169 16.6439 52.7437 16.2129C52.5708 15.7818 52.3149 15.3894 51.9912 15.0579C51.6674 14.7264 51.2817 14.4623 50.8568 14.2808C50.4316 14.0993 49.9752 14.0039 49.5132 14ZM42.4999 33.381H35.5V40.4286H28.5001V33.381H21.5001V26.3333H28.5001V19.2857H35.5V26.3333H42.4999V33.381Z" fill="white"/>
</svg>
