<svg width="70" height="70" viewBox="0 0 70 70" fill="none" xmlns="http://www.w3.org/2000/svg">
<path d="M3 9C3 5.68629 5.68629 3 9 3H61C64.3137 3 67 5.68629 67 9V61C67 64.3137 64.3137 67 61 67H9C5.68629 67 3 64.3137 3 61V9Z" fill="#EAA52F"/>
<path d="M13 33.8967L35.5 16L58 33.8967M20.5682 27.663V53ZM50.4318 27.663V53ZM14.0227 53H56.9773ZM40.2045 53V32.6902C40.0682 29.4728 38.5 27.8641 35.5 27.8641C32.5 27.8641 30.9318 29.3388 30.7955 32.288V38.1196" fill="#EAA52F"/>
<path d="M13 33.8967L35.5 16L58 33.8967M20.5682 27.663V53M50.4318 27.663V53M14.0227 53H56.9773M40.2045 53V32.6902C40.0682 29.4728 38.5 27.8641 35.5 27.8641C32.5 27.8641 30.9318 29.3388 30.7955 32.288V38.1196M9 67H61C64.3137 67 67 64.3137 67 61V9C67 5.68629 64.3137 3 61 3H9C5.68629 3 3 5.68629 3 9V61C3 64.3137 5.68629 67 9 67Z" stroke="white" stroke-width="6"/>
</svg>
