<svg width="64" height="64" viewBox="0 0 64 64" fill="none" xmlns="http://www.w3.org/2000/svg">
<path d="M0 6C0 2.68629 2.68629 0 6 0H58C61.3137 0 64 2.68629 64 6V58C64 61.3137 61.3137 64 58 64H6C2.68629 64 0 61.3137 0 58V6Z" fill="#91D999"/>
<path d="M57.252 29.3047L54.748 32.4238L50.0957 28.6885V49H54.9316V53H10.0684V49H14.9043V28.6885L10.252 32.4238L7.74805 29.3047L32.5 9.43555L57.252 29.3047ZM18.9043 25.4775V49H35.4141V29.6592C35.3523 28.2517 34.9939 27.5338 34.6396 27.167C34.3095 26.8252 33.7099 26.5059 32.5 26.5059C31.245 26.5059 30.6215 26.815 30.2979 27.1221C29.9788 27.425 29.646 28.016 29.5859 29.2344V35.3154H25.5859V29.123L25.5889 29.0771C25.6747 27.2047 26.2284 25.4701 27.5449 24.2207C28.8592 22.9735 30.6216 22.5059 32.5 22.5059C34.4234 22.5059 36.2088 23.0339 37.5166 24.3877C38.7988 25.7151 39.3293 27.5363 39.4121 29.5088L39.4141 29.5508V49H46.0957V25.4775L32.5 14.5645L18.9043 25.4775Z" fill="white"/>
</svg>
