<svg width="64" height="64" viewBox="0 0 64 64" fill="none" xmlns="http://www.w3.org/2000/svg">
<path d="M0 6C0 2.68629 2.68629 0 6 0H58C61.3137 0 64 2.68629 64 6V58C64 61.3137 61.3137 64 58 64H6C2.68629 64 0 61.3137 0 58V6Z" fill="#E49595"/>
<path d="M10 15.6364C10 14.6719 10.3863 13.747 11.0739 13.0651C11.7616 12.3831 12.6942 12 13.6667 12H50.3333C51.3057 12 52.2385 12.3831 52.926 13.0651C53.6135 13.747 54 14.6719 54 15.6364C54 16.6008 53.6135 17.5257 52.926 18.2077C52.2385 18.8896 51.3057 19.2727 50.3333 19.2727H13.6667C12.6945 19.2727 11.7622 18.8899 11.0746 18.2083C10.387 17.5268 10.0005 16.6005 10 15.6364ZM50.3333 24.7273H13.6667C12.6942 24.7273 11.7616 25.1104 11.0739 25.7923C10.3863 26.4743 10 27.3992 10 28.3636C10 29.3281 10.3863 30.253 11.0739 30.9349C11.7616 31.6169 12.6942 32 13.6667 32H28.3333V48.3636C28.3333 49.328 28.7197 50.2531 29.4073 50.9349C30.0949 51.6167 31.0275 52 32 52C32.9725 52 33.9051 51.6167 34.5927 50.9349C35.2803 50.2531 35.6667 49.328 35.6667 48.3636V32H50.3333C51.3057 32 52.2385 31.6169 52.926 30.9349C53.6135 30.253 54 29.3281 54 28.3636C54 27.3992 53.6135 26.4743 52.926 25.7923C52.2385 25.1104 51.3057 24.7273 50.3333 24.7273Z" fill="white"/>
</svg>
