<svg width="64" height="64" viewBox="0 0 64 64" fill="none" xmlns="http://www.w3.org/2000/svg">
<path d="M0 10C0 4.47715 4.47715 0 10 0H54C59.5228 0 64 4.47715 64 10V54C64 59.5228 59.5228 64 54 64H10C4.47715 64 0 59.5228 0 54V10Z" fill="#3B86DB"/>
<path d="M16.4545 7C14.5466 7 13 8.56695 13 10.5V38.5C13 40.433 14.5466 42 16.4545 42H47.5455C49.4534 42 51 40.433 51 38.5V10.5C51 8.56695 49.4534 7 47.5455 7H16.4545ZM25.9545 8.75H38.0792C38.5563 8.75 38.9428 9.14165 38.9428 9.625C38.9428 10.1083 38.5563 10.5 38.0792 10.5H25.9545C25.4775 10.5 25.0909 10.1083 25.0909 9.625C25.0909 9.14165 25.4775 8.75 25.9545 8.75ZM18.1818 14H30.2727V28H18.1818C17.228 28 16.4545 27.2164 16.4545 26.25V15.75C16.4545 14.7836 17.228 14 18.1818 14ZM33.7273 14H45.8182C46.772 14 47.5455 14.7836 47.5455 15.75V26.25C47.5455 27.2164 46.772 28 45.8182 28H33.7273V14ZM23.3636 31.5C25.2716 31.5 26.8182 33.067 26.8182 35C26.8182 36.933 25.2716 38.5 23.3636 38.5C21.4557 38.5 19.9091 36.933 19.9091 35C19.9091 33.067 21.4557 31.5 23.3636 31.5ZM40.6364 31.5C42.5443 31.5 44.0909 33.067 44.0909 35C44.0909 36.933 42.5443 38.5 40.6364 38.5C38.7284 38.5 37.1818 36.933 37.1818 35C37.1818 33.067 38.7284 31.5 40.6364 31.5ZM42.1747 45.4795C41.9512 45.4988 41.7245 45.565 41.5135 45.6777C40.7421 46.0893 40.3953 47.0187 40.7038 47.8447L41.2908 49H22.7092L23.1545 48.0566C23.492 47.1526 23.0415 46.1427 22.1491 45.8008C21.3339 45.4886 20.4166 45.8399 20.0103 46.6211L16.5558 53.6211C16.4825 53.8227 16.4497 54.0355 16.4545 54.25C16.4545 55.2164 17.228 56 18.1818 56C18.8043 55.9965 19.3739 55.648 19.6662 55.0908V54.9131H19.9091L20.9819 52.5H43.0181L44.0909 54.9131V55.0908C44.3832 55.648 44.9528 55.9965 45.5753 56C46.5291 56 47.3026 55.2164 47.3026 54.25C47.3713 53.9742 47.3713 53.685 47.3026 53.4092L43.848 46.4092C43.5146 45.7679 42.8454 45.4216 42.1747 45.4795Z" fill="white"/>
</svg>
